<svg width="41" height="40" viewBox="0 0 41 40" fill="none" xmlns="http://www.w3.org/2000/svg">
<path d="M20.5 40C31.5457 40 40.5 31.0457 40.5 20C40.5 8.9543 31.5457 0 20.5 0C9.4543 0 0.5 8.9543 0.5 20C0.5 31.0457 9.4543 40 20.5 40Z" fill="#FFF1F0"/>
<path d="M15.485 19.438V12.471H24.537V19.438L27.444 17.823L25.544 16.708V11.965C25.544 11.8324 25.4913 11.7052 25.3976 11.6114C25.3038 11.5176 25.1766 11.465 25.044 11.465H14.982C14.8494 11.465 14.7222 11.5176 14.6284 11.6114C14.5347 11.7052 14.482 11.8324 14.482 11.965V16.706L12.562 17.815L15.485 19.438Z" fill="#F5222D"/>
<path d="M20.255 22.9669C20.1804 23.0086 20.0964 23.0305 20.011 23.0305C19.9256 23.0305 19.8416 23.0086 19.767 22.9669L11.965 18.6329V27.0529C11.965 27.1855 12.0177 27.3127 12.1114 27.4065C12.2052 27.5003 12.3324 27.5529 12.465 27.5529H27.554C27.6866 27.5529 27.8138 27.5003 27.9076 27.4065C28.0013 27.3127 28.054 27.1855 28.054 27.0529V18.6329L20.255 22.9669Z" fill="#F5222D"/>
<path d="M18.502 18.7129L16.638 16.8489C16.591 16.8024 16.5537 16.7471 16.5282 16.686C16.5027 16.625 16.4896 16.5596 16.4896 16.4934C16.4896 16.4273 16.5027 16.3618 16.5282 16.3008C16.5537 16.2398 16.591 16.1844 16.638 16.1379L18.502 14.2739L19.213 14.9849L17.705 16.4939L19.214 18.0029L18.502 18.7129Z" fill="#F5222D"/>
<path d="M21.522 18.713L20.811 18.002L22.32 16.493L20.808 14.988L21.519 14.277L23.383 16.138C23.43 16.1845 23.4673 16.2398 23.4928 16.3009C23.5183 16.3619 23.5314 16.4274 23.5314 16.4935C23.5314 16.5596 23.5183 16.6251 23.4928 16.6861C23.4673 16.7471 23.43 16.8025 23.383 16.849L21.522 18.713Z" fill="#F5222D"/>
</svg>
