<svg width="24" height="24" viewBox="0 0 24 24" fill="none" xmlns="http://www.w3.org/2000/svg">
<g filter="url(#filter0_d_0_258)">
<path d="M17 6C16.8011 6 16.6103 5.92098 16.4697 5.78033C16.329 5.63968 16.25 5.44891 16.25 5.25C16.25 4.85218 16.092 4.47064 15.8107 4.18934C15.5294 3.90804 15.1478 3.75 14.75 3.75C14.5511 3.75 14.3603 3.67098 14.2197 3.53033C14.079 3.38968 14 3.19891 14 3C14 2.80109 14.079 2.61032 14.2197 2.46967C14.3603 2.32902 14.5511 2.25 14.75 2.25C15.1478 2.25 15.5294 2.09196 15.8107 1.81066C16.092 1.52936 16.25 1.14782 16.25 0.75C16.25 0.551088 16.329 0.360322 16.4697 0.21967C16.6103 0.0790176 16.8011 0 17 0C17.1989 0 17.3897 0.0790176 17.5303 0.21967C17.671 0.360322 17.75 0.551088 17.75 0.75C17.75 1.14782 17.908 1.52936 18.1893 1.81066C18.4706 2.09196 18.8522 2.25 19.25 2.25C19.4489 2.25 19.6397 2.32902 19.7803 2.46967C19.921 2.61032 20 2.80109 20 3C20 3.19891 19.921 3.38968 19.7803 3.53033C19.6397 3.67098 19.4489 3.75 19.25 3.75C18.8522 3.75 18.4706 3.90804 18.1893 4.18934C17.908 4.47064 17.75 4.85218 17.75 5.25C17.75 5.44891 17.671 5.63968 17.5303 5.78033C17.3897 5.92098 17.1989 6 17 6Z" fill="#722ED1"/>
<path d="M10 16C9.73478 16 9.48043 15.8946 9.29289 15.7071C9.10536 15.5196 9 15.2652 9 15C9 13.9391 8.57857 12.9217 7.82843 12.1716C7.07828 11.4214 6.06087 11 5 11C4.73478 11 4.48043 10.8946 4.29289 10.7071C4.10536 10.5196 4 10.2652 4 10C4 9.73478 4.10536 9.48043 4.29289 9.29289C4.48043 9.10536 4.73478 9 5 9C6.06087 9 7.07828 8.57857 7.82843 7.82843C8.57857 7.07828 9 6.06087 9 5C9 4.73478 9.10536 4.48043 9.29289 4.29289C9.48043 4.10536 9.73478 4 10 4C10.2652 4 10.5196 4.10536 10.7071 4.29289C10.8946 4.48043 11 4.73478 11 5C11 6.06087 11.4214 7.07828 12.1716 7.82843C12.9217 8.57857 13.9391 9 15 9C15.2652 9 15.5196 9.10536 15.7071 9.29289C15.8946 9.48043 16 9.73478 16 10C16 10.2652 15.8946 10.5196 15.7071 10.7071C15.5196 10.8946 15.2652 11 15 11C13.9391 11 12.9217 11.4214 12.1716 12.1716C11.4214 12.9217 11 13.9391 11 15C11 15.2652 10.8946 15.5196 10.7071 15.7071C10.5196 15.8946 10.2652 16 10 16Z" fill="#722ED1"/>
</g>
<defs>
<filter id="filter0_d_0_258" x="0" y="0" width="24" height="24" filterUnits="userSpaceOnUse" color-interpolation-filters="sRGB">
<feFlood flood-opacity="0" result="BackgroundImageFix"/>
<feColorMatrix in="SourceAlpha" type="matrix" values="0 0 0 0 0 0 0 0 0 0 0 0 0 0 0 0 0 0 127 0" result="hardAlpha"/>
<feOffset dy="4"/>
<feGaussianBlur stdDeviation="2"/>
<feComposite in2="hardAlpha" operator="out"/>
<feColorMatrix type="matrix" values="0 0 0 0 0 0 0 0 0 0 0 0 0 0 0 0 0 0 0.25 0"/>
<feBlend mode="normal" in2="BackgroundImageFix" result="effect1_dropShadow_0_258"/>
<feBlend mode="normal" in="SourceGraphic" in2="effect1_dropShadow_0_258" result="shape"/>
</filter>
</defs>
</svg>
