<svg width="86" height="30" viewBox="0 0 86 30" fill="none" xmlns="http://www.w3.org/2000/svg">
<path fill-rule="evenodd" clip-rule="evenodd" d="M21.4026 16.8214C21.323 17.0366 21.3019 17.269 21.3412 17.4951C21.3805 17.7211 21.479 17.9327 21.6266 18.1084C21.7952 18.2373 21.99 18.3278 22.1973 18.3734C22.4047 18.419 22.6194 18.4186 22.8266 18.3724C23.6538 18.1919 24.5109 18.1977 25.3356 18.3894C25.5468 18.481 25.7353 18.6176 25.8882 18.7897C26.041 18.9618 26.1544 19.1653 26.2204 19.3858C26.2864 19.6063 26.3034 19.8385 26.2703 20.0663C26.2372 20.294 26.1547 20.5118 26.0286 20.7044C25.6999 21.2466 25.2921 21.7367 24.8186 22.1584C23.313 23.9078 21.9914 25.8075 20.8746 27.8274C20.3816 28.6274 19.7286 29.6934 18.6906 29.7994C18.2224 29.8669 17.7459 29.7552 17.3566 29.4866C16.9672 29.2179 16.6936 28.8121 16.5906 28.3504C16.4496 27.3714 17.3966 26.4374 18.0426 25.7944C18.4966 25.3404 18.9206 24.8724 19.3426 24.3844C19.8356 23.8204 20.3016 23.2584 20.7426 22.6594C21.2576 21.9594 22.1136 20.8134 21.4816 19.9484C21.0236 19.3124 20.0496 19.4234 19.4136 19.6774C18.6033 20.0602 17.9073 20.6483 17.3946 21.3834C16.8362 22.2082 16.3267 23.065 15.8686 23.9494C15.51 24.68 14.9932 25.3216 14.3556 25.8274C14.0292 26.0389 13.635 26.1197 13.2518 26.0535C12.8685 25.9874 12.5242 25.7791 12.2876 25.4704C12.1045 25.0887 12.0305 24.6638 12.0739 24.2427C12.1173 23.8216 12.2764 23.4207 12.5336 23.0844C12.9306 22.4968 13.3947 21.9575 13.9166 21.4774C14.6976 20.6774 15.4896 19.8824 16.2486 19.0594C16.6286 18.6374 17.0056 18.2214 17.3486 17.7874C17.6596 17.3874 18.1276 16.8634 17.9896 16.3084C17.7286 15.2634 16.0766 15.6424 15.4016 15.9734C14.451 16.5186 13.6087 17.2338 12.9166 18.0834C12.1631 18.9539 11.4752 19.8791 10.8586 20.8514C9.55261 22.7984 8.34661 24.8254 6.99861 26.7424C6.43661 27.5424 5.76661 28.5094 4.73861 28.7144C4.49112 28.7665 4.23539 28.7657 3.98827 28.7118C3.74115 28.6579 3.50825 28.5523 3.30492 28.4019C3.10159 28.2515 2.93244 28.0597 2.80863 27.8391C2.68482 27.6186 2.60915 27.3743 2.58661 27.1224C2.57976 26.2125 2.91407 25.333 3.52361 24.6574C3.99027 24.0507 4.46694 23.4534 4.95361 22.8654C6.25361 21.2924 7.5636 19.7174 8.8976 18.1824C10.0286 16.8664 11.1156 15.5204 12.1786 14.1374C12.7786 13.3434 13.3916 12.5624 13.9436 11.7374C14.4167 10.9222 15.0254 10.1938 15.7436 9.58339C16.0491 9.32105 16.4294 9.16137 16.8307 9.12692C17.2319 9.09246 17.6338 9.18498 17.9796 9.39139C18.8126 10.0374 18.4016 11.2354 18.0556 12.0194C17.7096 12.8034 17.3776 13.7894 18.3716 14.1664C19.0716 14.4374 19.8506 14.2204 20.5356 14.5664C20.9199 14.7836 21.2172 15.1273 21.3767 15.539C21.5362 15.9507 21.5482 16.4049 21.4106 16.8244" fill="#5959FF"/>
<path fill-rule="evenodd" clip-rule="evenodd" d="M7.5376 16.8854C9.16204 14.5261 10.9227 12.2636 12.8106 10.1094C14.4056 8.29237 16.0886 6.55237 17.7406 4.78037C18.398 4.15927 18.8011 3.31601 18.8716 2.41437C18.8871 2.19407 18.8562 1.97296 18.7809 1.76535C18.7056 1.55774 18.5875 1.36826 18.4343 1.20915C18.2812 1.05005 18.0963 0.924863 17.8917 0.841701C17.6871 0.758538 17.4673 0.719248 17.2466 0.726371C16.7812 0.806575 16.3389 0.98701 15.9502 1.25517C15.5615 1.52333 15.2358 1.87281 14.9956 2.27937C14.3576 3.09637 13.8106 3.97837 13.2376 4.83637C12.6906 5.64737 12.0746 6.40437 11.4926 7.19037C10.8516 8.06537 10.2306 8.96037 9.5206 9.77337C8.9686 10.3974 8.2606 11.5164 7.3026 11.4984C7.13187 11.491 6.96729 11.4326 6.83017 11.3306C6.69306 11.2286 6.58974 11.0878 6.5336 10.9264C6.46415 10.7173 6.45031 10.4938 6.49344 10.2778C6.53658 10.0618 6.6352 9.86071 6.7796 9.69437C7.22788 9.06533 7.72688 8.47403 8.2716 7.92637C8.84037 7.45708 9.32265 6.89189 9.6966 6.25637C9.83256 5.93848 9.87762 5.58909 9.82677 5.24711C9.77593 4.90512 9.63116 4.58396 9.4086 4.31937C9.2712 4.1521 9.08923 4.02716 8.88376 3.95902C8.67829 3.89089 8.45773 3.88234 8.2476 3.93437C7.7546 4.07737 7.4146 4.57237 7.0156 4.84637C6.7496 5.02637 6.1946 5.18937 6.0296 4.79237C5.8646 4.39537 6.3576 4.00637 6.5746 3.78437C7.1746 3.16537 8.2376 2.52637 8.2986 1.57837C8.30438 1.35421 8.25397 1.13216 8.15198 0.932466C8.04999 0.732767 7.89965 0.56176 7.71467 0.435023C7.52968 0.308287 7.31592 0.229848 7.09287 0.206854C6.86982 0.183859 6.64455 0.217039 6.4376 0.303371C5.5678 0.670771 4.83803 1.3063 4.3546 2.11737C3.8886 2.77837 3.0776 3.93637 3.3856 4.78937C3.4613 4.97435 3.58698 5.13462 3.74857 5.25224C3.91017 5.36986 4.10131 5.4402 4.3006 5.45537C4.7246 5.52237 5.3116 5.29037 5.6836 5.53937C6.5286 6.10637 5.4936 7.46437 5.1116 8.00437C4.51795 8.82929 3.85774 9.60421 3.1376 10.3214C2.3836 11.0804 1.5456 11.8004 0.867602 12.6214C0.555092 12.9234 0.34982 13.3193 0.283028 13.7487C0.216237 14.1782 0.291584 14.6177 0.497602 15.0004C0.634392 15.1837 0.81178 15.3328 1.01586 15.4361C1.21994 15.5393 1.44516 15.5939 1.67388 15.5956C1.90259 15.5972 2.12858 15.5459 2.33412 15.4456C2.53967 15.3453 2.71919 15.1987 2.8586 15.0174C3.40893 14.1882 4.01324 13.3962 4.6676 12.6464C4.81807 12.4886 5.007 12.3728 5.21583 12.3102C5.42465 12.2476 5.64617 12.2404 5.8586 12.2894C5.96482 12.3292 6.06202 12.3898 6.14451 12.4677C6.22701 12.5456 6.29315 12.6391 6.33906 12.7428C6.38497 12.8466 6.40972 12.9584 6.41187 13.0718C6.41403 13.1853 6.39354 13.298 6.3516 13.4034C5.95429 14.3343 5.34064 15.1571 4.5616 15.8034C3.8616 16.5424 3.0826 17.1784 2.3996 17.9114C2.06802 18.2291 1.8053 18.6116 1.62777 19.0351C1.45024 19.4587 1.36168 19.9142 1.3676 20.3734C1.38721 20.6071 1.4629 20.8327 1.58823 21.031C1.71357 21.2292 1.88487 21.3944 2.0876 21.5124C2.49961 21.6678 2.94949 21.6925 3.37606 21.5832C3.80262 21.4739 4.18515 21.2358 4.4716 20.9014C5.39176 19.9453 6.20582 18.8925 6.8996 17.7614L7.5376 16.8854Z" fill="#5959FF"/>
<path fill-rule="evenodd" clip-rule="evenodd" d="M25.0796 4.18336C24.5866 4.69636 24.0396 5.16936 23.5386 5.66236C23.0376 6.15536 22.3066 6.91436 22.5386 7.68336C22.6058 7.84345 22.7113 7.9846 22.8458 8.09442C22.9803 8.20425 23.1397 8.27938 23.31 8.31325C23.4803 8.34711 23.6563 8.33866 23.8225 8.28864C23.9888 8.23862 24.1403 8.14856 24.2636 8.02636C24.8326 7.53336 25.3136 6.75236 26.1786 6.97836C26.5415 7.12378 26.8353 7.40211 27.0001 7.75663C27.1649 8.11114 27.1883 8.51517 27.0656 8.88636C26.8093 9.61866 26.3493 10.2626 25.7396 10.7424C25.1437 11.3517 24.6162 12.0243 24.1666 12.7484C23.8116 13.3224 23.4416 13.9194 22.6876 13.9804C22.3446 13.9786 22.0128 13.8581 21.7486 13.6393C21.4845 13.4205 21.3042 13.117 21.2386 12.7804C21.1939 12.3721 21.245 11.9591 21.3879 11.574C21.5307 11.189 21.7614 10.8426 22.0616 10.5624C22.4616 10.0694 22.9516 9.31736 22.3526 8.76236C21.7016 8.16236 20.8066 8.57236 20.1346 8.86236C19.973 8.95753 19.7941 9.01972 19.6083 9.04534C19.4225 9.07095 19.2335 9.05949 19.0522 9.0116C18.8709 8.96371 18.7008 8.88034 18.5519 8.76633C18.403 8.65232 18.2781 8.50991 18.1846 8.34736C18.0458 8.01007 18.0019 7.64126 18.0576 7.28081C18.1133 6.92036 18.2665 6.58201 18.5006 6.30236C19.1586 5.35536 20.0366 4.57736 20.7186 3.63536C21.5886 2.47236 22.1756 0.591355 23.9326 0.729355C24.2935 0.769463 24.6372 0.904779 24.9285 1.12144C25.2198 1.3381 25.4483 1.62832 25.5906 1.96236C25.7228 2.3426 25.7451 2.75243 25.6549 3.14477C25.5647 3.53711 25.3656 3.89605 25.0806 4.18036" fill="#5959FF"/>
<path fill-rule="evenodd" clip-rule="evenodd" d="M32.4456 24.0093H35.5936V9.83734L41.2856 24.0093H42.4146L48.0026 9.84034V24.0093H51.4926V5.24835H46.8736L42.0476 18.0663L37.1176 5.26034H32.4456V24.0093ZM53.5256 24.0093H56.7006V10.2863H53.5256V24.0093ZM55.0736 8.03134C55.4962 8.01813 55.9011 7.85909 56.2198 7.58123C56.5384 7.30336 56.7511 6.9238 56.8217 6.50696C56.8923 6.09012 56.8164 5.6617 56.607 5.29442C56.3977 4.92713 56.0676 4.64363 55.673 4.49202C55.2783 4.34041 54.8434 4.33005 54.4419 4.46268C54.0405 4.59532 53.6973 4.86279 53.4707 5.21968C53.2441 5.57657 53.1479 6.0009 53.1986 6.42063C53.2492 6.84035 53.4436 7.22962 53.7486 7.52235C53.9242 7.69143 54.132 7.82359 54.3596 7.91102C54.5871 7.99844 54.8299 8.03936 55.0736 8.03134V8.03134ZM58.7316 24.0093H61.9066V15.9263C61.8717 15.4914 61.9308 15.054 62.0799 14.6439C62.229 14.2338 62.4646 13.8606 62.7708 13.5497C63.0769 13.2387 63.4463 12.9972 63.854 12.8417C64.2617 12.6862 64.6982 12.6203 65.1336 12.6483C67.0216 12.6483 67.8626 13.5923 67.8626 15.6653V24.0093H71.0376V15.3813C71.0376 11.6023 69.0956 10.0023 66.3376 10.0023C65.4404 9.95034 64.5469 10.1545 63.7614 10.5909C62.9758 11.0273 62.3304 11.6781 61.9006 12.4673V10.2863H58.7306L58.7316 24.0093ZM79.1166 24.2703C82.6316 24.2703 84.9656 22.6953 85.4166 19.8113H82.3526C82.1056 21.1473 81.1206 21.9113 79.2046 21.9113C76.8436 21.9113 75.5316 20.4323 75.4256 17.8443H85.4726V16.9273C85.4726 12.0193 82.4036 10.0003 78.9926 10.0003C75.0856 10.0003 72.1716 12.8323 72.1716 17.0843V17.2943C72.113 18.2239 72.2525 19.1552 72.581 20.0268C72.9094 20.8983 73.4192 21.6902 74.0766 22.3499C74.7341 23.0096 75.5242 23.5221 76.3946 23.8536C77.265 24.185 78.1959 24.3277 79.1256 24.2723L79.1166 24.2703ZM75.4686 15.7173C75.7886 13.5923 77.0756 12.3033 78.9886 12.3033C80.9606 12.3033 82.1636 13.3513 82.3216 15.7123L75.4686 15.7173Z" fill="#5959FF"/>
</svg>
