<svg width="146" height="39" viewBox="0 0 146 39" fill="none" xmlns="http://www.w3.org/2000/svg">
<path d="M98.2528 15.795L91.6976 21.952L98.766 30.076C97.015 30.076 95.4978 30.106 93.9838 30.046C93.7348 30.036 93.469 29.657 93.266 29.404C91.458 27.161 89.6659 24.904 87.6459 22.697V30.005H83.9457V9.26001H87.578V21.439L87.8666 21.596C88.3446 21.065 88.8177 20.529 89.3007 20.003C90.5277 18.669 91.7449 17.325 93.0009 16.018C93.2601 15.7287 93.6113 15.5377 93.995 15.477C95.331 15.415 96.6716 15.452 98.0106 15.452L98.2528 15.795Z" fill="#722ED1"/>
<path d="M131.557 30.096V15.523H135.057V17.48L135.432 17.749C135.456 17.5539 135.515 17.3647 135.605 17.19C136.324 16.2251 137.336 15.5186 138.49 15.1761C139.643 14.8336 140.877 14.8736 142.006 15.29C143.075 15.6717 143.996 16.3817 144.638 17.3185C145.279 18.2553 145.608 19.371 145.578 20.506C145.615 23.658 145.586 26.811 145.586 30.095C144.467 30.095 143.433 30.141 142.409 30.057C142.198 30.04 141.868 29.542 141.862 29.257C141.816 27.073 141.837 24.889 141.834 22.704C141.834 22.304 141.829 21.897 141.806 21.495C141.673 19.144 140.739 18.034 138.897 18.027C138.424 18.0071 137.952 18.0846 137.511 18.2547C137.069 18.4248 136.667 18.6838 136.329 19.0158C135.992 19.3477 135.726 19.7454 135.549 20.1842C135.371 20.6231 135.286 21.0938 135.298 21.567C135.205 24.017 135.214 26.473 135.261 28.925C135.279 29.834 135.051 30.206 134.094 30.111C133.271 30.031 132.433 30.096 131.557 30.096Z" fill="#722ED1"/>
<path d="M70.1898 30.03H66.6166V15.522H70.0629C70.1009 16.208 70.1369 16.853 70.1869 17.733C70.6012 17.0185 71.1713 16.4067 71.8549 15.9432C72.5384 15.4797 73.3176 15.1764 74.1346 15.056C77.8696 14.621 80.4938 16.85 80.5868 20.626C80.6578 23.514 80.5867 26.405 80.6127 29.294C80.6177 29.909 80.4127 30.131 79.7977 30.106C78.8647 30.068 77.93 30.096 76.85 30.096C76.85 29.582 76.856 29.16 76.85 28.738C76.807 26.054 76.7997 23.369 76.6967 20.687C76.7165 20.0877 76.5249 19.5005 76.1552 19.0284C75.7854 18.5563 75.2613 18.2294 74.6747 18.105C74.009 17.8844 73.2881 17.898 72.6312 18.1433C71.9743 18.3887 71.421 18.8511 71.0629 19.454C70.556 20.4251 70.2702 21.4964 70.226 22.591C70.109 25.039 70.1898 27.488 70.1898 30.03Z" fill="#722ED1"/>
<path d="M40.6517 18.27H38.2157V15.484H40.8348C40.8348 13.768 40.8348 12.171 40.8348 10.573C40.8348 9.268 40.8349 9.26799 42.1439 9.26599C44.5209 9.26599 44.5199 9.26601 44.5219 11.622C44.5219 12.7647 44.5282 13.9073 44.5409 15.05C44.5653 15.1749 44.6043 15.2964 44.6576 15.412H48.3138V18.239H44.5927C44.5657 18.709 44.5258 19.094 44.5248 19.479C44.5248 21.394 44.4957 23.311 44.5497 25.225C44.6027 27.092 45.3209 27.653 47.1859 27.419C47.4809 27.382 47.7796 27.37 48.0516 27.348C48.0966 27.427 48.1268 27.456 48.1278 27.486C48.2078 30.196 48.8637 30.286 45.6537 30.349C42.4187 30.414 40.8778 28.914 40.7758 25.685C40.7108 23.603 40.7396 21.519 40.7196 19.436C40.7156 19.076 40.6777 18.718 40.6517 18.27Z" fill="#722ED1"/>
<path d="M27.9887 15.956C27.8067 16.111 27.7344 16.169 27.6664 16.232C27.4384 16.444 27.2112 16.6567 26.9838 16.87C26.7747 16.6238 26.597 16.3524 26.4555 16.062C26.2035 15.334 26.0558 14.569 25.7978 13.844C25.3601 12.3563 24.6032 10.9818 23.5805 9.81601C22.5805 12.208 22.5805 12.208 22.0595 12.463C21.8758 10.9815 21.6154 9.51046 21.2787 8.056C20.8717 6.597 20.1988 5.21201 19.5888 3.65601L18.3969 5.76202C17.8799 4.53202 17.5256 3.48701 17.0126 2.52701C16.5582 1.47193 15.7821 0.587466 14.7949 0C14.5949 5.153 12.0377 8.83401 7.7597 10.152L7.22064 8.22202C5.86796 9.39383 4.87363 10.9239 4.35248 12.636C3.82648 14.283 3.4525 15.978 2.9975 17.68L2.39789 17.401C1.62865 19.1283 1.16119 20.9747 1.01654 22.86C0.35454 30.492 6.64886 37.913 13.9409 38.003C17.1955 38.1609 20.3912 37.0938 22.8979 35.012C28.9029 29.878 29.2867 23.194 27.9887 15.956ZM20.6664 31.891C20.3556 31.9814 20.0696 32.1409 19.829 32.3575C19.5885 32.5741 19.4001 32.8423 19.2778 33.142C18.7988 34.1287 18.0172 34.9369 17.0473 35.4489C16.0774 35.961 14.9696 36.1502 13.8847 35.989C12.7818 35.806 11.776 35.2473 11.038 34.4074C10.3001 33.5676 9.87549 32.4983 9.83588 31.381C9.78936 31.0137 9.60053 30.6791 9.31048 30.449C8.42217 29.9197 7.7254 29.1212 7.32123 28.1694C6.91705 27.2176 6.82641 26.1618 7.06244 25.155C7.22005 24.2032 7.6617 23.3211 8.32904 22.6243C8.99638 21.9276 9.85852 21.4485 10.8027 21.25C11.775 20.9497 12.8193 20.9803 13.7724 21.3369C14.7255 21.6936 15.5335 22.3562 16.0698 23.221C16.1468 23.327 16.2339 23.427 16.3159 23.53L16.4155 23.247C17.6691 23.0243 18.9443 22.9458 20.2158 23.013C21.1688 23.1833 22.0335 23.6776 22.664 24.4124C23.2945 25.1471 23.6521 26.0771 23.6757 27.045C23.7811 28.072 23.5427 29.1049 22.998 29.9819C22.4533 30.8588 21.6328 31.5303 20.6655 31.891H20.6664Z" fill="#8C3AAA"/>
<path d="M113.733 22.39C113.689 18.49 111.413 15.672 107.843 15.09C103.764 14.42 99.9544 16.474 98.7524 20.072C97.2254 24.641 99.4175 29.672 105.04 30.395C108.107 30.789 110.832 30.195 113.031 27.617C112.477 27.3274 111.938 27.0075 111.419 26.659C111.153 26.4457 110.823 26.3273 110.481 26.3224C110.14 26.3176 109.806 26.4265 109.534 26.632C108.65 27.0976 107.687 27.394 106.695 27.506C106.153 27.572 105.603 27.5288 105.078 27.379C104.553 27.2291 104.063 26.9756 103.638 26.6335C103.212 26.2913 102.86 25.8674 102.601 25.3868C102.342 24.9062 102.181 24.3785 102.129 23.835H113.729C113.733 23.258 113.739 22.824 113.733 22.39ZM102.202 21.274C102.183 20.6727 102.338 20.0789 102.65 19.5643C102.961 19.0496 103.415 18.6362 103.957 18.374C104.617 17.9331 105.389 17.6901 106.183 17.6738C106.977 17.6575 107.759 17.8685 108.436 18.282C108.948 18.5869 109.363 19.0307 109.632 19.5616C109.902 20.0926 110.015 20.6891 109.959 21.282L102.202 21.274Z" fill="#722ED1"/>
<path d="M128.858 19.638C128.815 18.6291 128.427 17.6658 127.757 16.9097C127.088 16.1535 126.179 15.6504 125.183 15.485C123.549 15.1778 121.88 15.1078 120.226 15.277C118.572 15.4493 117.027 16.1842 115.849 17.359L117.72 19.476C118.104 19.218 118.373 19.019 118.658 18.847C119.404 18.3252 120.268 17.9966 121.172 17.8905C122.077 17.7844 122.993 17.9041 123.84 18.239C124.118 18.3195 124.376 18.4546 124.601 18.6364C124.826 18.8182 125.012 19.0431 125.149 19.2978C125.286 19.5525 125.371 19.8319 125.398 20.1198C125.425 20.4076 125.395 20.698 125.309 20.974C124.861 20.999 124.395 21.029 123.93 21.052C121.513 21.172 119.078 21.264 116.93 22.57C116.329 22.9125 115.827 23.4057 115.473 24.001C115.12 24.5963 114.927 25.2733 114.915 25.9654C114.902 26.6576 115.069 27.3411 115.401 27.9488C115.732 28.5566 116.217 29.0677 116.805 29.432C118.1 30.2284 119.618 30.5821 121.132 30.44C121.973 30.4129 122.798 30.2094 123.555 29.8426C124.312 29.4759 124.984 28.954 125.526 28.311C125.577 29.011 125.612 29.495 125.651 30.031H129.196C129.097 26.518 129.095 23.07 128.858 19.638ZM124.058 27.038C123.421 27.482 122.674 27.7445 121.899 27.7973C121.124 27.8502 120.35 27.6914 119.658 27.338C119.398 27.2167 119.173 27.0282 119.01 26.7918C118.846 26.5554 118.748 26.2796 118.727 25.9929C118.705 25.7061 118.76 25.4188 118.886 25.1604C119.013 24.9021 119.205 24.6821 119.445 24.523C119.913 24.1449 120.464 23.8825 121.053 23.757C122.453 23.529 123.884 23.441 125.407 23.287C125.604 24.937 125.301 26.224 124.055 27.034L124.058 27.038Z" fill="#722ED1"/>
<path d="M57.5137 15.049C52.4747 14.916 49.0817 17.93 48.9917 22.62C48.9785 24.7152 49.7979 26.7299 51.2701 28.2208C52.7422 29.7117 54.7466 30.5568 56.8418 30.57C58.937 30.5833 60.9515 29.7637 62.4424 28.2915C63.9333 26.8194 64.7783 24.8152 64.7915 22.72C64.8236 21.7369 64.6601 20.7572 64.3106 19.8377C63.9611 18.9182 63.4329 18.0772 62.7559 17.3636C62.0789 16.65 61.2666 16.078 60.3667 15.6807C59.4669 15.2833 58.4972 15.0686 57.5137 15.049ZM60.7627 24.397C60.6488 24.9244 60.4283 25.423 60.1148 25.8621C59.8012 26.3012 59.4013 26.6716 58.9395 26.9505C58.4776 27.2295 57.9633 27.4111 57.4287 27.4843C56.8942 27.5575 56.3504 27.5206 55.8306 27.376C53.9556 26.89 52.7649 25.015 52.7779 22.57C52.7959 19.306 55.1588 17.28 58.0498 18.05C60.3418 18.66 61.5417 21.467 60.7627 24.397Z" fill="#722ED1"/>
<path d="M17.5243 28.113C17.9243 27.68 18.1703 27.196 18.5243 27.092C18.7374 27.0485 18.9578 27.0535 19.1688 27.1064C19.3798 27.1594 19.5762 27.259 19.7435 27.398C20.0125 27.664 20.0054 28.208 20.1664 28.805L17.5243 28.113Z" fill="#722ED1"/>
<path d="M11.1768 27.098C11.1668 26.174 11.5516 25.68 12.4156 25.709C13.2156 25.736 13.6087 26.19 13.5157 27.098H11.1768Z" fill="#722ED1"/>
</svg>
