<svg width="88" height="31" viewBox="0 0 88 31" fill="none" xmlns="http://www.w3.org/2000/svg">
<path fill-rule="evenodd" clip-rule="evenodd" d="M2.61279 28.2267H17.813C18.7491 28.2651 19.6778 28.0465 20.4985 27.5947C21.3193 27.143 22.0005 26.4752 22.4688 25.6637C22.9048 24.8038 23.0761 23.8339 22.9609 22.8766C22.8458 21.9193 22.4494 21.0177 21.8218 20.2857L13.0156 9.71872C12.7881 9.43984 12.6791 9.08293 12.7114 8.72444C12.7438 8.36595 12.9152 8.03438 13.189 7.80072L22.1538 0.331726L23.29 1.55772L14.7666 8.97972L23.2256 19.1217C24.0591 20.1004 24.5945 21.2976 24.7681 22.5713C24.9416 23.845 24.7459 25.1418 24.2046 26.3077C23.6303 27.4529 22.7392 28.4088 21.6367 29.0613C20.5342 29.7138 19.2671 30.0354 17.9868 29.9877L2.61377 30.0027C2.49791 30.0031 2.38305 29.9807 2.27588 29.9366C2.16871 29.8926 2.07137 29.8278 1.98926 29.7461C1.90714 29.6644 1.84188 29.5672 1.79736 29.4603C1.75284 29.3533 1.73011 29.2386 1.72998 29.1227V29.1067C1.72998 28.9908 1.7529 28.876 1.79736 28.7689C1.84183 28.6618 1.90664 28.5645 1.98877 28.4827C2.0709 28.4008 2.16864 28.336 2.27588 28.2919C2.38311 28.2478 2.49782 28.2253 2.61377 28.2257" fill="#246C00"/>
<path fill-rule="evenodd" clip-rule="evenodd" d="M2.42282 28.2417L17.874 25.3957C18.2475 25.317 18.5938 25.1421 18.8789 24.8883C19.1639 24.6345 19.3777 24.3106 19.499 23.9487C19.6256 23.5889 19.6555 23.2023 19.5864 22.8272C19.5173 22.4521 19.3515 22.1017 19.1049 21.8107C15.459 17.4237 11.8291 13.0677 8.18307 8.66571C8.00565 8.45549 7.87994 8.20639 7.81686 7.93863C7.75379 7.67087 7.75485 7.39202 7.81979 7.12471C7.88384 6.85667 8.00992 6.60743 8.18796 6.39708C8.366 6.18673 8.59092 6.02116 8.8447 5.91371L22.4507 0.0327148L22.9399 1.76271L9.96579 7.39171C9.92165 7.40643 9.88246 7.43278 9.85202 7.46797C9.82158 7.50317 9.80115 7.5459 9.79294 7.59171C9.77984 7.63789 9.7785 7.68666 9.78952 7.73338C9.80055 7.78011 9.82357 7.82324 9.85593 7.8587C13.4069 12.1197 16.926 16.3497 20.479 20.6107C20.9554 21.1356 21.2793 21.7808 21.4155 22.4765C21.5517 23.1722 21.4951 23.8918 21.2519 24.5577C21.0457 25.2141 20.6651 25.8021 20.1508 26.2592C19.6366 26.7162 19.008 27.025 18.332 27.1527L6.11569 29.4007L2.42282 28.2417Z" fill="#246C00"/>
<path fill-rule="evenodd" clip-rule="evenodd" d="M22.8779 1.77768L7.42578 4.62367C7.04932 4.69521 6.69927 4.86759 6.41309 5.12242C6.1269 5.37726 5.91532 5.705 5.80078 6.07068C5.67478 6.43059 5.64508 6.81717 5.71436 7.19215C5.78364 7.56714 5.94952 7.91754 6.1958 8.20868C9.8418 12.5957 13.4717 16.9517 17.1177 21.3387C17.2946 21.5523 17.4199 21.8042 17.4829 22.0744C17.5459 22.3446 17.5452 22.6258 17.481 22.8957C17.414 23.1624 17.2866 23.4103 17.1089 23.6202C16.9312 23.8301 16.7081 23.9965 16.4561 24.1067L2.84961 29.9877L2.36084 28.2577L15.335 22.6287C15.3763 22.6094 15.4131 22.5817 15.4429 22.5472C15.4727 22.5127 15.4947 22.4723 15.5078 22.4287C15.5174 22.3823 15.5167 22.3343 15.5059 22.2882C15.495 22.2421 15.4742 22.1989 15.4448 22.1617C7.74482 12.9317 11.6258 17.5707 4.82275 9.40967C4.34633 8.88475 4.02247 8.23957 3.88623 7.5439C3.74999 6.84823 3.80659 6.12854 4.0498 5.46268C4.25415 4.8051 4.63414 4.21583 5.14893 3.7585C5.66371 3.30117 6.29364 2.99314 6.9707 2.86768L22.2808 0.0216675L22.8779 1.77768Z" fill="#246C00"/>
<path fill-rule="evenodd" clip-rule="evenodd" d="M22.6727 1.79371H7.47248C6.5387 1.75803 5.61309 1.97601 4.79328 2.42447C3.97346 2.87294 3.29031 3.53515 2.81672 4.3407C2.38697 5.20585 2.22064 6.17817 2.33869 7.13692C2.45673 8.09568 2.85402 8.99865 3.48078 9.73371L12.2879 20.3007C12.5168 20.5804 12.6253 20.9394 12.5897 21.299C12.554 21.6586 12.3768 21.9894 12.0975 22.2187L3.14972 29.6877L2.01252 28.4617L10.5198 21.0397L2.0755 10.8977C1.24228 9.9189 0.707347 8.72165 0.534 7.44796C0.360654 6.17427 0.556136 4.87759 1.09748 3.71171C1.66967 2.56872 2.55836 1.61421 3.65754 0.961798C4.75671 0.309386 6.02026 -0.0134574 7.29767 0.0316981L22.6707 0.0157069C22.9065 0.014096 23.1335 0.105658 23.3021 0.270468C23.4706 0.435278 23.5669 0.659985 23.5706 0.895697V0.911703C23.5672 1.14759 23.4707 1.37256 23.3021 1.53759C23.1335 1.70261 22.9066 1.79431 22.6707 1.7927" fill="#246C00"/>
<path fill-rule="evenodd" clip-rule="evenodd" d="M11.3076 22.8797L3.14893 29.6887L2.01172 28.4617L9.47705 21.9517L11.3076 22.8797Z" fill="#246C00"/>
<path fill-rule="evenodd" clip-rule="evenodd" d="M13.9126 25.2067L2.84863 29.9867L2.35986 28.2567L12.9497 23.6657L13.9126 25.2067Z" fill="#246C00"/>
<path fill-rule="evenodd" clip-rule="evenodd" d="M2.42279 28.2417L14.7968 25.9617L15.27 27.7067L6.11566 29.4067L2.42279 28.2417Z" fill="#246C00"/>
<path fill-rule="evenodd" clip-rule="evenodd" d="M2.61279 28.2257H15.4126C15.5581 28.8014 15.6325 29.3929 15.6338 29.9867L2.61279 30.0027C2.49693 30.0031 2.38207 29.9806 2.2749 29.9366C2.16773 29.8926 2.07039 29.8278 1.98828 29.7461C1.90617 29.6643 1.84091 29.5672 1.79639 29.4602C1.75187 29.3533 1.72913 29.2386 1.729 29.1227V29.1067C1.729 28.9908 1.75192 28.8759 1.79639 28.7689C1.84085 28.6618 1.90567 28.5645 1.98779 28.4827C2.06992 28.4008 2.16767 28.336 2.2749 28.2919C2.38214 28.2478 2.49685 28.2253 2.61279 28.2257" fill="#246C00"/>
<path fill-rule="evenodd" clip-rule="evenodd" d="M76.5402 20.8197C76.4157 20.5688 76.2731 20.3272 76.1139 20.0967L72.9411 15.0017L76.5412 9.41972L72.2638 9.40371C72.1528 9.43471 69.391 14.1207 69.028 14.7187V5.15872C68.618 5.12772 65.7769 5.11172 65.4279 5.17472V20.8357C66.1699 20.8207 68.568 20.8667 69.028 20.8207L69.0441 15.5377C69.1541 15.6477 71.9801 20.5067 72.1061 20.8207L76.5402 20.8197ZM86.8629 16.0547C87.2113 14.5941 87.015 13.0566 86.3102 11.7307C85.6711 10.6517 84.6518 9.85011 83.4528 9.48272C82.0176 9.01644 80.4614 9.09476 79.0802 9.70272C77.8369 10.2766 76.8415 11.2788 76.2765 12.5262C75.7115 13.7736 75.6145 15.1827 76.0031 16.4957C76.6971 19.2627 79.0492 20.6787 81.7472 20.9767C83.2515 21.1661 84.779 21.0102 86.214 20.5207V17.9577H83.278C82.3251 18.0068 81.3781 17.7831 80.548 17.3127C80.3118 17.1777 80.105 16.9969 79.9396 16.7809C79.7742 16.5648 79.6538 16.318 79.5851 16.0547H86.8629ZM79.4909 13.6807C79.4957 13.4305 79.5515 13.1839 79.6544 12.9559C79.7574 12.7278 79.9055 12.5231 80.09 12.354C80.2745 12.1849 80.4915 12.0551 80.7277 11.9724C80.9638 11.8896 81.2144 11.8557 81.464 11.8727C81.7051 11.857 81.947 11.8931 82.173 11.9785C82.399 12.0639 82.6041 12.1967 82.7746 12.368C82.945 12.5392 83.0769 12.7449 83.1613 12.9714C83.2457 13.1978 83.2806 13.4397 83.2638 13.6807H79.4909ZM57.7741 12.3127C57.8372 12.3102 57.9003 12.3156 57.9621 12.3287C59.1781 12.3597 60.3302 12.8947 60.4562 14.0427C58.8197 13.888 57.1698 14.1252 55.6432 14.7347C54.9714 15.0068 54.4181 15.509 54.0827 16.1515C53.7472 16.794 53.6514 17.535 53.8122 18.2417C53.9782 19.0897 54.4518 19.8463 55.1422 20.3658C55.8327 20.8853 56.6911 21.1311 57.5519 21.0557C58.1472 21.093 58.7429 20.9851 59.2873 20.7412C59.8316 20.4973 60.3084 20.1248 60.6769 19.6557L61.2301 20.8347H63.9127L63.8512 14.6707C63.8352 13.1607 63.757 11.9977 62.841 10.9597C61.373 9.27771 58.8949 8.88372 56.5739 9.33972C55.8685 9.48594 55.1811 9.70755 54.5231 10.0007V12.3117L57.7741 12.3127ZM60.4562 17.8477C60.1252 18.4297 57.7099 18.8857 57.4269 17.6477C57.0629 16.0127 59.9832 16.1067 60.4562 16.2637V17.8477ZM31.3991 19.9547C31.4991 20.1437 31.8571 20.2687 32.0631 20.3637C32.811 20.6867 33.6039 20.8934 34.4142 20.9767C36.6712 21.2437 39.0071 20.8347 40.1911 18.8227C40.4613 18.3432 40.6122 17.8058 40.6315 17.2557C40.6508 16.7057 40.5379 16.159 40.3019 15.6617C39.1339 13.4757 35.5201 13.8377 34.7931 13.1297C34.7023 13.023 34.6549 12.8859 34.6608 12.746C34.6667 12.606 34.7254 12.4734 34.8249 12.3747C35.3331 12.0295 35.9555 11.8944 36.5612 11.9977H40.049V10.2677C39.955 10.0477 39.0072 9.70172 38.7082 9.59172C37.0316 9.02184 35.2102 9.04408 33.548 9.65472C33.0623 9.84271 32.6245 10.1364 32.2663 10.5144C31.908 10.8924 31.6379 11.3454 31.4762 11.8406C31.3146 12.3357 31.265 12.8606 31.3312 13.3772C31.3974 13.8939 31.5778 14.3893 31.859 14.8277C32.868 16.1487 34.353 16.2427 36.089 16.6517C36.546 16.7617 37.3352 16.8877 37.2892 17.4227C37.2102 18.1617 35.727 18.2227 35.111 18.2407H31.402L31.3991 19.9547ZM45.3512 13.2087C45.8674 12.6638 46.5749 12.341 47.3249 12.3087C48.9349 12.2927 49.2658 13.3627 49.2658 14.5887L49.2501 15.5797V20.8317H52.8498C52.8648 18.5677 52.85 16.3187 52.881 14.0547C52.9901 12.9613 52.8217 11.858 52.3917 10.8467C52.0414 10.2956 51.5485 9.84963 50.965 9.55628C50.3815 9.26294 49.7291 9.13316 49.0778 9.18072C48.3683 9.15324 47.662 9.28918 47.0133 9.57804C46.3647 9.86691 45.7913 10.301 45.3371 10.8467V5.13871H41.737V20.8317H45.3371L45.3512 13.2087Z" fill="#246C00"/>
</svg>
