<svg width="113" height="30" viewBox="0 0 113 30" fill="none" xmlns="http://www.w3.org/2000/svg">
<path d="M24.7079 29.5407H5.53165C4.22402 29.5367 2.97142 29.0155 2.04678 28.0909C1.12215 27.1662 0.600545 25.9133 0.596588 24.6057V5.42967C0.600808 4.12222 1.12218 2.86953 2.04678 1.94511C2.97139 1.02069 4.22419 0.499622 5.53165 0.495667H24.7079C26.0153 0.499623 27.2678 1.02073 28.1923 1.94518C29.1167 2.86962 29.638 4.12231 29.642 5.42967V24.6057C29.6429 25.2539 29.5156 25.8959 29.268 26.4949C29.0203 27.094 28.657 27.6382 28.1986 28.0966C27.7403 28.5549 27.1961 28.9183 26.5971 29.166C25.998 29.4136 25.3561 29.5416 24.7079 29.5407Z" fill="#3CA1FF"/>
<path d="M24.7068 0.478668H15.1189V15.0007H29.6409V5.41266C29.6399 4.10414 29.1194 2.84952 28.1941 1.92426C27.2689 0.998993 26.0144 0.47872 24.7059 0.477661" fill="#0084FF"/>
<path d="M15.1189 29.5406H24.7068C26.0145 29.5367 27.2676 29.0155 28.1922 28.0909C29.1168 27.1662 29.6379 25.9133 29.6419 24.6057V15.0176H15.1199L15.1189 29.5406Z" fill="#0059AC"/>
<path d="M55.107 19.0826C55.1599 19.0835 55.212 19.0951 55.2603 19.1168C55.3086 19.1384 55.3519 19.1697 55.3878 19.2087L56.1251 20.0137C55.5566 20.6734 54.8496 21.1999 54.0548 21.5557C53.1277 21.9471 52.1276 22.1356 51.1216 22.1086C50.1876 22.1217 49.2609 21.9451 48.397 21.5897C47.6057 21.2599 46.8946 20.7636 46.3121 20.1347C45.7201 19.4836 45.2647 18.7201 44.9737 17.8897C44.6476 16.9649 44.4864 15.9901 44.4976 15.0097C44.4863 14.0262 44.6595 13.0494 45.0079 12.1297C45.3262 11.29 45.813 10.5243 46.4381 9.87966C47.0638 9.24503 47.8147 8.74809 48.6436 8.42066C49.5466 8.0662 50.5101 7.88994 51.48 7.90165C52.3841 7.87958 53.2828 8.04118 54.1226 8.37665C54.8519 8.68614 55.5205 9.12295 56.0967 9.66666L55.4859 10.5297C55.4436 10.5913 55.391 10.6454 55.3306 10.6897C55.2553 10.7364 55.1672 10.7585 55.0787 10.7527C54.9826 10.7489 54.8901 10.7169 54.8121 10.6607C54.7181 10.5987 54.6061 10.5237 54.4781 10.4327C54.3501 10.3417 54.1961 10.2457 54.0211 10.1417C53.8231 10.027 53.6156 9.92969 53.4009 9.85065C53.1298 9.75139 52.8509 9.67513 52.567 9.62266C52.2057 9.55741 51.8388 9.52661 51.4717 9.53066C50.7725 9.52215 50.0784 9.65232 49.4298 9.91366C48.8248 10.1592 48.2791 10.5311 47.8297 11.0047C47.3679 11.5026 47.0132 12.0901 46.7877 12.7307C46.5298 13.4624 46.4032 14.2339 46.4136 15.0097C46.4011 15.7983 46.5278 16.583 46.7877 17.3277C47.0106 17.9629 47.357 18.5477 47.8067 19.0487C48.2308 19.5136 48.7525 19.8792 49.3341 20.1197C49.9364 20.3682 50.5823 20.4937 51.234 20.4887C51.6069 20.4912 51.9793 20.4668 52.3487 20.4157C52.6614 20.3715 52.9687 20.2951 53.2657 20.1877C53.5415 20.087 53.805 19.9551 54.0508 19.7947C54.309 19.6246 54.5536 19.435 54.7828 19.2277C54.8691 19.1408 54.9848 19.0892 55.107 19.0826V19.0826Z" fill="#3CA1FF"/>
<path d="M60.2456 7.66864V21.9527H58.52V7.66864H60.2456Z" fill="#3CA1FF"/>
<path d="M67.1808 11.9746C67.7382 11.9702 68.2913 12.072 68.8107 12.2746C69.2964 12.4641 69.7362 12.7549 70.1007 13.1276C70.4767 13.5224 70.766 13.9914 70.9498 14.5046C71.1602 15.1041 71.2616 15.7364 71.2496 16.3716C71.2659 16.557 71.2361 16.7436 71.1627 16.9146C71.1242 16.9639 71.0736 17.0023 71.0158 17.0261C70.9579 17.0499 70.8947 17.0584 70.8326 17.0506H64.296C64.2976 17.5999 64.3825 18.1458 64.548 18.6696C64.6829 19.0915 64.9004 19.4822 65.1886 19.8186C65.4532 20.1214 65.7858 20.3575 66.1588 20.5076C66.5601 20.6645 66.9878 20.7419 67.4186 20.7356C67.7977 20.7434 68.1759 20.6928 68.5397 20.5856C68.8178 20.4997 69.0885 20.391 69.3488 20.2606C69.5437 20.1624 69.7332 20.0539 69.9166 19.9356C70.0304 19.8494 70.1665 19.7973 70.3087 19.7856C70.3733 19.7828 70.4378 19.7965 70.4957 19.8254C70.5536 19.8543 70.6031 19.8973 70.6398 19.9506L71.1237 20.5806C70.9052 20.844 70.6471 21.0714 70.358 21.2546C70.0586 21.4465 69.7385 21.6041 69.4039 21.7246C69.0619 21.8479 68.7093 21.9403 68.3507 22.0006C67.9953 22.0615 67.6356 22.0923 67.275 22.0926C66.6334 22.0994 65.996 21.9826 65.3986 21.7486C64.836 21.5255 64.3295 21.1813 63.9147 20.7406C63.4797 20.266 63.1479 19.7062 62.9406 19.0966C62.6965 18.3721 62.5789 17.6111 62.5919 16.8466C62.5864 16.1933 62.6929 15.5439 62.9069 14.9266C63.1027 14.3555 63.4109 13.8294 63.8136 13.3796C64.2156 12.9373 64.7084 12.5867 65.2579 12.3516C65.8657 12.0935 66.5205 11.9651 67.1808 11.9746V11.9746ZM67.2199 13.2456C66.8599 13.2257 66.4997 13.2794 66.1613 13.4036C65.8229 13.5277 65.5132 13.7197 65.2516 13.9676C64.7415 14.5175 64.4279 15.2207 64.359 15.9676H69.7028C69.7068 15.5945 69.651 15.2231 69.5377 14.8676C69.4361 14.5501 69.2712 14.2565 69.0529 14.0046C68.8378 13.7613 68.5707 13.5693 68.2716 13.4426C67.9381 13.3056 67.5803 13.2386 67.2199 13.2456V13.2456Z" fill="#3CA1FF"/>
<path d="M80.6676 21.9526H79.9005C79.761 21.9583 79.6222 21.9316 79.4947 21.8746C79.4378 21.8393 79.3898 21.7909 79.3551 21.7336C79.3203 21.6762 79.2996 21.6115 79.2945 21.5446L79.1017 20.6326C78.843 20.8653 78.5908 21.074 78.3448 21.2586C78.1031 21.4403 77.8426 21.5961 77.5685 21.7236C77.2914 21.8519 77.0008 21.9478 76.7018 22.0096C76.3651 22.0782 76.0224 22.1117 75.6788 22.1096C75.3156 22.1121 74.954 22.0577 74.6075 21.9486C74.2883 21.849 73.9932 21.685 73.7399 21.4666C73.4866 21.2427 73.2857 20.9654 73.1525 20.6546C72.9991 20.2865 72.9251 19.8903 72.9347 19.4916C72.9366 19.0948 73.0471 18.706 73.2545 18.3676C73.5115 17.9655 73.8669 17.6355 74.2867 17.4086C74.8716 17.0887 75.5006 16.8575 76.1534 16.7226C77.0812 16.5283 78.028 16.4384 78.9757 16.4547V15.6836C79.0197 15.0637 78.8462 14.4478 78.4855 13.9417C78.3049 13.7391 78.0806 13.5805 77.8292 13.4783C77.5779 13.376 77.3065 13.3327 77.0358 13.3516C76.6751 13.342 76.3156 13.3962 75.9737 13.5116C75.713 13.6051 75.4626 13.7254 75.2267 13.8706C75.0167 14.004 74.8357 14.1236 74.6837 14.2296C74.554 14.3285 74.3965 14.3844 74.2335 14.3896C74.1243 14.3922 74.0175 14.36 73.9278 14.2976C73.842 14.2385 73.7708 14.1605 73.7198 14.0696L73.4078 13.5166C73.9137 13.0181 74.5094 12.6201 75.1637 12.3436C75.8264 12.0782 76.5349 11.9464 77.2487 11.9556C77.7499 11.9465 78.2477 12.0386 78.7125 12.2266C79.1229 12.3961 79.4908 12.6543 79.7897 12.9827C80.0893 13.3229 80.3137 13.7226 80.4479 14.1556C80.6018 14.645 80.677 15.1557 80.6715 15.6686L80.6676 21.9526ZM76.1876 20.8956C76.4683 20.8984 76.7483 20.8675 77.0216 20.8036C77.2687 20.7444 77.5078 20.6564 77.7345 20.5416C77.9614 20.4261 78.1763 20.2881 78.3756 20.1296C78.5887 19.9601 78.7893 19.7752 78.9757 19.5766V17.5496C78.2969 17.5404 77.6188 17.591 76.9488 17.7006C76.4818 17.7752 76.0255 17.9079 75.5914 18.0956C75.2923 18.2193 75.0302 18.4176 74.8297 18.6716C74.6731 18.8867 74.5897 19.1466 74.5924 19.4126C74.5868 19.6433 74.6302 19.8726 74.7189 20.0856C74.795 20.2641 74.9112 20.4225 75.0587 20.5486C75.2045 20.6712 75.3751 20.7609 75.5587 20.8116C75.7631 20.8688 75.9744 20.8971 76.1866 20.8956H76.1876Z" fill="#3CA1FF"/>
<path d="M83.2867 21.9527V12.1297H84.2759C84.4141 12.1149 84.5525 12.1532 84.6636 12.2367C84.7491 12.3417 84.8001 12.4706 84.8096 12.6057L84.9258 14.1377C85.214 13.5165 85.6402 12.9692 86.1719 12.5377C86.6692 12.152 87.2834 11.9484 87.9126 11.9607C88.1613 11.9577 88.4096 11.9887 88.6499 12.0527C88.8638 12.1119 89.0689 12.1982 89.2608 12.3097L89.0376 13.5997C89.0255 13.6696 88.9888 13.7327 88.9336 13.7772C88.8784 13.8217 88.8087 13.8446 88.7378 13.8417C88.5951 13.831 88.4547 13.8001 88.3208 13.7497C88.065 13.6795 87.7998 13.6484 87.5347 13.6577C86.9848 13.6396 86.448 13.8264 86.0279 14.1817C85.575 14.6021 85.2277 15.1236 85.0147 15.7037V21.9587L83.2867 21.9527Z" fill="#3CA1FF"/>
<path d="M91.1618 21.9527V7.66864H92.8967V13.5456C93.2906 13.0844 93.7648 12.6985 94.2966 12.4066C94.8532 12.1116 95.4758 11.9629 96.1056 11.9746C96.6366 11.9669 97.1627 12.0761 97.6467 12.2946C98.1106 12.5116 98.5141 12.8396 98.821 13.2496C99.1673 13.7212 99.4204 14.2544 99.5676 14.8206C99.7524 15.5248 99.8407 16.2508 99.8298 16.9787C99.8357 17.6635 99.7375 18.3453 99.5387 19.0006C99.3638 19.5884 99.0792 20.1378 98.6999 20.6196C98.3383 21.0722 97.8816 21.4396 97.362 21.6956C96.8074 21.9637 96.1976 22.0983 95.5817 22.0887C95.0213 22.1056 94.4662 21.9786 93.9689 21.7197C93.5135 21.4634 93.1179 21.1129 92.8088 20.6917L92.7218 21.5836C92.7102 21.6909 92.657 21.7895 92.5739 21.8584C92.4908 21.9273 92.3846 21.9611 92.277 21.9527H91.1618ZM95.5446 13.3526C95.025 13.3414 94.5127 13.4758 94.0656 13.7406C93.6103 14.0302 93.214 14.4035 92.8976 14.8407V19.5927C93.1588 19.9761 93.5144 20.286 93.9299 20.4926C94.3277 20.6713 94.7599 20.7607 95.196 20.7546C95.6015 20.7765 96.0062 20.6988 96.3747 20.5281C96.7432 20.3574 97.0641 20.0991 97.3097 19.7757C97.8506 18.9487 98.109 17.9688 98.0466 16.9827C98.0558 16.4282 97.9988 15.8746 97.8766 15.3336C97.7876 14.929 97.6214 14.5453 97.3869 14.2036C97.1886 13.9214 96.9171 13.6984 96.6017 13.5586C96.2664 13.4162 95.9049 13.3457 95.5407 13.3516L95.5446 13.3526Z" fill="#3CA1FF"/>
<path d="M104.252 9.05065C104.254 9.2128 104.22 9.37335 104.152 9.52065C104.085 9.66465 103.993 9.79592 103.881 9.90865C103.768 10.0218 103.635 10.1124 103.488 10.1757C103.338 10.2417 103.176 10.2758 103.012 10.2757C102.85 10.2763 102.69 10.2422 102.542 10.1757C102.397 10.1118 102.265 10.0212 102.154 9.90865C102.041 9.79714 101.95 9.66555 101.886 9.52065C101.82 9.37279 101.785 9.21262 101.786 9.05065C101.786 8.88553 101.82 8.72222 101.886 8.57065C101.948 8.42117 102.039 8.2853 102.154 8.17066C102.265 8.05821 102.397 7.96765 102.542 7.90366C102.69 7.8372 102.85 7.8031 103.012 7.80366C103.176 7.80366 103.338 7.83772 103.488 7.90366C103.634 7.96706 103.768 8.05766 103.881 8.17066C103.995 8.2865 104.086 8.42202 104.152 8.57065C104.219 8.72167 104.253 8.88534 104.252 9.05065V9.05065ZM103.865 12.1347V21.9577H102.137V12.1347H103.865Z" fill="#3CA1FF"/>
<path d="M109.886 22.1076C109.559 22.129 109.231 22.0823 108.923 21.9705C108.615 21.8586 108.334 21.6839 108.097 21.4576C107.649 20.9407 107.424 20.2678 107.471 19.5856V13.5736H106.288C106.192 13.5765 106.098 13.5437 106.025 13.4816C105.988 13.4447 105.959 13.3999 105.941 13.3504C105.922 13.301 105.915 13.2481 105.92 13.1956V12.5076L107.528 12.3076L107.929 9.27262C107.939 9.18019 107.984 9.09512 108.055 9.03461C108.131 8.97158 108.227 8.93882 108.326 8.94262H109.2V12.3276H112.013V13.5786H109.201V19.4786C109.187 19.6443 109.207 19.8111 109.258 19.9692C109.31 20.1273 109.392 20.2736 109.501 20.3996C109.603 20.4999 109.724 20.5783 109.857 20.6298C109.991 20.6814 110.133 20.7052 110.276 20.6996C110.436 20.703 110.595 20.6783 110.746 20.6266C110.865 20.5844 110.98 20.5308 111.089 20.4666C111.187 20.408 111.269 20.3546 111.336 20.3066C111.388 20.2646 111.451 20.2392 111.517 20.2336C111.568 20.238 111.617 20.2554 111.66 20.2843C111.702 20.3132 111.736 20.3526 111.759 20.3986L112.259 21.2226C111.948 21.5099 111.582 21.7326 111.184 21.8776C110.768 22.0322 110.329 22.1101 109.886 22.1076V22.1076Z" fill="#3CA1FF"/>
</svg>
