<?xml version="1.0" encoding="UTF-8"?>
<svg xmlns="http://www.w3.org/2000/svg" xmlns:xlink="http://www.w3.org/1999/xlink" width="16px" height="16px" viewBox="0 0 16 16" version="1.1">
<g id="surface1">
<path style=" stroke:none;fill-rule:nonzero;fill:rgb(22.352941%,87.843137%,60.784314%);fill-opacity:1;" d="M 5.988281 0.570312 C 5.722656 0 5.035156 0 4.769531 0.570312 L 0.21875 10.476562 C 0.0078125 10.984375 0.324219 11.554688 0.800781 11.554688 L 3.871094 11.554688 L 3.871094 15.300781 C 3.871094 15.683594 4.136719 16 4.453125 16 L 6.253906 16 C 6.570312 16 6.835938 15.683594 6.835938 15.300781 L 6.835938 11.554688 L 5.988281 11.554688 C 5.617188 11.554688 5.351562 11.238281 5.300781 10.855469 C 5.300781 10.730469 5.300781 10.601562 5.351562 10.476562 L 7.894531 4.949219 Z M 5.988281 0.570312 "/>
<path style=" stroke:none;fill-rule:nonzero;fill:rgb(15.686275%,74.901961%,48.235294%);fill-opacity:1;" d="M 10.011719 0.570312 C 10.277344 0 10.964844 0 11.230469 0.570312 L 15.78125 10.476562 C 15.992188 10.984375 15.675781 11.554688 15.199219 11.554688 L 12.183594 11.554688 L 12.183594 15.300781 C 12.183594 15.683594 11.917969 16 11.597656 16 L 9.695312 16 C 9.375 16 9.113281 15.683594 9.113281 15.300781 L 9.113281 11.554688 L 9.957031 11.554688 C 10.328125 11.554688 10.59375 11.238281 10.648438 10.855469 C 10.648438 10.730469 10.648438 10.601562 10.59375 10.476562 L 8.054688 4.953125 Z M 10.011719 0.570312 "/>
</g>
</svg>
