<svg width="424" height="15" viewBox="0 0 424 15" fill="none" xmlns="http://www.w3.org/2000/svg">
<path d="M0 6H144" stroke="#D6D6D6"/>
<path d="M280 6H424" stroke="#D6D6D6"/>
<path d="M172.256 11.9999H173.872V2.51192H177.488V1.00792H168.656V2.51192H172.256V11.9999Z" fill="#8989A2"/>
<path d="M180.941 5.31192V3.72792H179.357V11.9999H180.941V7.29592C181.085 5.85592 182.301 4.91192 184.013 4.91192V3.53592C182.589 3.53592 181.469 4.22392 180.941 5.31192Z" fill="#8989A2"/>
<path d="M191.254 3.72792V9.08792C191.126 10.0639 190.134 10.8159 188.982 10.8159C187.862 10.8159 187.078 9.95192 187.078 8.71992V3.72792H185.526V8.99192C185.526 10.8639 186.806 12.1919 188.63 12.1919C189.75 12.1919 190.758 11.6159 191.254 10.7999V11.9999H192.838V3.72792H191.254Z" fill="#8989A2"/>
<path d="M198.128 12.1919C199.936 12.1919 201.264 11.1999 201.264 9.63192C201.264 7.98392 199.808 7.53592 198.448 7.13592C197.056 6.70392 196.544 6.51192 196.544 5.87192C196.544 5.24792 197.184 4.89592 198 4.89592C198.72 4.89592 199.552 5.16792 200.352 5.66392L201.056 4.49592C200.16 3.90392 199.072 3.53592 198 3.53592C196.24 3.53592 194.976 4.52792 194.992 6.04792C194.992 7.39192 195.936 7.93592 197.84 8.46392C198.864 8.75192 199.712 8.99192 199.712 9.75992C199.712 10.3999 199.072 10.8319 198.144 10.8319C197.168 10.8319 196.224 10.4639 195.344 9.82392L194.592 10.9599C195.584 11.7599 196.912 12.1919 198.128 12.1919Z" fill="#8989A2"/>
<path d="M206.977 10.5119C206.801 10.6879 206.481 10.8159 206.129 10.8159C205.665 10.8159 205.281 10.3999 205.281 9.82392V5.07192H207.233V3.72792H205.281V1.45592H203.729V3.72792H202.481V5.07192H203.729V9.93592C203.729 11.2639 204.625 12.1919 205.905 12.1919C206.497 12.1919 207.105 11.9679 207.553 11.5999L206.977 10.5119Z" fill="#8989A2"/>
<path d="M212.96 10.7839C211.536 10.7839 210.528 9.79192 210.32 8.41592H216.832C216.832 5.45592 215.376 3.53592 212.848 3.53592C210.56 3.53592 208.72 5.35992 208.72 7.83992C208.72 10.3839 210.672 12.1919 212.976 12.1919C214.144 12.1919 215.584 11.6959 216.32 10.9119L215.328 9.88792C214.832 10.3999 213.824 10.7839 212.96 10.7839ZM212.912 4.94392C214.336 4.94392 215.12 5.87192 215.296 7.15192H210.336C210.592 5.80792 211.632 4.94392 212.912 4.94392Z" fill="#8989A2"/>
<path d="M225.036 0.815918V5.15192C224.396 4.14392 223.372 3.53592 222.092 3.53592C219.916 3.53592 218.284 5.32792 218.284 7.85592C218.284 10.3999 219.916 12.1919 222.092 12.1919C223.372 12.1919 224.396 11.5839 225.036 10.5599V11.9999H226.604V0.815918H225.036ZM222.476 10.8159C220.956 10.8159 219.884 9.58392 219.884 7.85592C219.884 6.12792 220.956 4.91192 222.476 4.91192C223.964 4.91192 225.036 6.12792 225.036 7.85592C225.036 9.58392 223.964 10.8159 222.476 10.8159Z" fill="#8989A2"/>
<path d="M238.15 3.53592C236.87 3.53592 235.846 4.14392 235.206 5.15192V0.815918H233.638V11.9999H235.206V10.5599C235.846 11.5839 236.87 12.1919 238.15 12.1919C240.326 12.1919 241.958 10.3999 241.958 7.85592C241.958 5.32792 240.326 3.53592 238.15 3.53592ZM237.766 10.8159C236.278 10.8159 235.206 9.58392 235.206 7.85592C235.206 6.12792 236.278 4.91192 237.766 4.91192C239.286 4.91192 240.358 6.12792 240.358 7.85592C240.358 9.58392 239.286 10.8159 237.766 10.8159Z" fill="#8989A2"/>
<path d="M245.327 14.8799C246.511 14.8639 247.391 14.2399 247.983 12.7519L251.631 3.72792H249.983L247.471 10.2559L244.815 3.72792H243.119L246.671 12.0479L246.255 12.9279C245.983 13.4079 245.631 13.5679 245.119 13.5679C244.799 13.5679 244.431 13.4879 244.111 13.3119L243.759 14.5279C244.191 14.7519 244.767 14.8799 245.327 14.8799Z" fill="#8989A2"/>
</svg>
